{"title":"1º Aula  04-03-2012 .MPG","uid":7112378,"size":2033778688,"categoryP":"video","categoryS":"movies","magnet":"?xt=urn:btih:be6b208ca01d617048e97e9ac4f226ba917ca540&amp;dn=1%26ordm%3B+Aula++04-03-2012+.MPG&amp;tr=udp%3A%2F%2Ftracker.openbittorrent.com%3A80&amp;tr=udp%3A%2F%2Fopen.demonii.com%3A1337&amp;tr=udp%3A%2F%2Ftracker.coppersurfer.tk%3A6969&amp;tr=udp%3A%2F%2Fexodus.desync.com%3A6969","seeders":0,"leechers":0,"uploader":"eldervitortesti","files":-1,"time":1332107411,"description":"General\nComplete name                            : D:Meu AmorzinhoProjeto Cura Interior - Marielena Saivish Vogel1Âº Aula  04-03-2012 .MPG\nFormat                                   : MPEG-PS\nFile size                                : 1.89 GiB\nDuration                                 : 29mn 5s\nOverall bit rate                         : 9 320 Kbps\n\nVideo\nID                                       : 224 (0xE0)\nFormat                                   : MPEG Video\nFormat version                           : Version 2\nFormat profile                           : Main@Main\nFormat settings, BVOP                    : Yes\nFormat settings, Matrix                  : Custom\nFormat settings, GOP                     : M=3, N=15\nDuration                                 : 29mn 5s\nBit rate mode                            : Variable\nBit rate                                 : 8 879 Kbps\nMaximum bit rate                         : 9 100 Kbps\nWidth                                    : 720 pixels\nHeight                                   : 480 pixels\nDisplay aspect ratio                     : 16:9\nFrame rate                               : 29.970 fps\nStandard                                 : NTSC\nColor space                              : YUV\nChroma subsampling                       : 4:2:0\nBit depth                                : 8 bits\nScan type                                : Interlaced\nScan order                               : Top Field First\nCompression mode                         : Lossy\nBits/(Pixel*Frame)                       : 0.857\nStream size                              : 1.80 GiB (95%)\n\nAudio\nID                                       : 189 (0xBD)-128 (0x80)\nFormat                                   : AC-3\nFormat/Info                              : Audio Coding 3\nMode extension                           : CM (complete main)\nMuxing mode                              : DVD-Video\nDuration                                 : 29mn 5s\nBit rate mode                            : Constant\nBit rate                                 : 256 Kbps\nChannel(s)                               : 2 channels\nChannel positions                        : Front: L R\nSampling rate                            : 48.0 KHz\nBit depth                                : 16 bits\nCompression mode                         : Lossy\nDelay relative to video                  : -70ms\nStream size                              : 53.3 MiB (3%)","torrent":{"xt":"urn:btih:be6b208ca01d617048e97e9ac4f226ba917ca540","amp;dn":"1%26ordm%3B+Aula++04-03-2012+.MPG","amp;tr":["udp%3A%2F%2Ftracker.openbittorrent.com%3A80","udp%3A%2F%2Fopen.demonii.com%3A1337","udp%3A%2F%2Ftracker.coppersurfer.tk%3A6969","udp%3A%2F%2Fexodus.desync.com%3A6969"],"infoHash":"be6b208ca01d617048e97e9ac4f226ba917ca540","infoHashBuffer":{"type":"Buffer","data":[190,107,32,140,160,29,97,112,72,233,126,154,196,242,38,186,145,124,165,64]},"announce":[],"urlList":[]}}